<?xml version="1.0" encoding="UTF-8" standalone="no"?>
<svg
   xmlns:dc="http://purl.org/dc/elements/1.1/"
   xmlns:cc="http://creativecommons.org/ns#"
   xmlns:rdf="http://www.w3.org/1999/02/22-rdf-syntax-ns#"
   xmlns:svg="http://www.w3.org/2000/svg"
   xmlns="http://www.w3.org/2000/svg"
   xmlns:sodipodi="http://sodipodi.sourceforge.net/DTD/sodipodi-0.dtd"
   xmlns:inkscape="http://www.inkscape.org/namespaces/inkscape"
   version="1.1"
   id="Layer_1"
   x="0px"
   y="0px"
   viewBox="0 0 108.3 108.3"
   style="enable-background:new 0 0 108.3 108.3;"
   xml:space="preserve"
   sodipodi:docname="undraw_profile.svg"
   inkscape:version="1.0.2 (e86c870879, 2021-01-15, custom)"><metadata
   id="metadata21"><rdf:RDF><cc:Work
       rdf:about=""><dc:format>image/svg+xml</dc:format><dc:type
         rdf:resource="http://purl.org/dc/dcmitype/StillImage" /></cc:Work></rdf:RDF></metadata><defs
   id="defs19" /><sodipodi:namedview
   pagecolor="#ffffff"
   bordercolor="#666666"
   borderopacity="1"
   objecttolerance="10"
   gridtolerance="10"
   guidetolerance="10"
   inkscape:pageopacity="0"
   inkscape:pageshadow="2"
   inkscape:window-width="1920"
   inkscape:window-height="1000"
   id="namedview17"
   showgrid="false"
   inkscape:zoom="7.5161586"
   inkscape:cx="54.150002"
   inkscape:cy="76.310215"
   inkscape:window-x="-11"
   inkscape:window-y="-11"
   inkscape:window-maximized="1"
   inkscape:current-layer="Layer_1" />
<style
   type="text/css"
   id="style2">
	.st0{fill:#E6E6E6;}
	.st1{fill:#FFB8B8;}
	.st2{fill:#575A89;}
	.st3{fill:#2F2E41;}
</style>
<g
   id="Group_45"
   transform="translate(-191 -152.079)">
	<g
   id="Group_30"
   transform="translate(282.246 224.353)">
		<path
   id="Path_944"
   class="st0"
   d="M17.1-18.1c0,10.5-3,20.8-8.8,29.6c-1.2,1.9-2.5,3.6-4,5.3c-3.4,4-7.3,7.4-11.6,10.3    c-1.2,0.8-2.4,1.5-3.6,2.2c-6.5,3.6-13.7,5.8-21,6.5c-1.7,0.2-3.4,0.2-5.1,0.2c-4.7,0-9.4-0.6-14-1.8c-2.6-0.7-5.1-1.6-7.6-2.6    c-1.3-0.5-2.5-1.1-3.7-1.8c-2.9-1.5-5.6-3.3-8.2-5.3c-1.2-0.9-2.3-1.9-3.4-2.9C-95.8,1.3-97.1-33-76.8-54.9s54.6-23.3,76.5-2.9    C10.8-47.6,17.1-33.2,17.1-18.1L17.1-18.1z" />
		<path
   id="Path_945"
   class="st1"
   d="M-50.2-13.2c0,0,4.9,13.7,1.1,21.4s6,16.4,6,16.4s25.8-13.1,22.5-19.7s-8.8-15.3-7.7-20.8    L-50.2-13.2z" />
		<ellipse
   id="Ellipse_185"
   class="st1"
   cx="-40.6"
   cy="-25.5"
   rx="17.5"
   ry="17.5" />
		<path
   id="Path_946"
   class="st2"
   d="M-51.1,34.2c-2.6-0.7-5.1-1.6-7.6-2.6l0.5-13.3l4.9-11c1.1,0.9,2.3,1.6,3.5,2.3    c0.3,0.2,0.6,0.3,0.9,0.5c4.6,2.2,12.2,4.2,19.5-1.3c2.7-2.1,5-4.7,6.7-7.6L-8.8,9l0.7,8.4l0.8,9.8c-1.2,0.8-2.4,1.5-3.6,2.2    c-6.5,3.6-13.7,5.8-21,6.5c-1.7,0.2-3.4,0.2-5.1,0.2C-41.8,36.1-46.5,35.4-51.1,34.2z" />
		<path
   id="Path_947"
   class="st2"
   d="M-47.7-0.9L-47.7-0.9l-0.7,7.2l-0.4,3.8l-0.5,5.6l-1.8,18.5c-2.6-0.7-5.1-1.6-7.6-2.6    c-1.3-0.5-2.5-1.1-3.7-1.8c-2.9-1.5-5.6-3.3-8.2-5.3l-1.9-9l0.1-0.1L-47.7-0.9z" />
		<path
   id="Path_948"
   class="st2"
   d="M-10.9,29.3c-6.5,3.6-13.7,5.8-21,6.5c0.4-6.7,1-13.1,1.6-18.8c0.3-2.9,0.7-5.7,1.1-8.2    c1.2-8,2.5-13.5,3.4-14.2l6.1,4L4.9,7.3l-0.5,9.5c-3.4,4-7.3,7.4-11.6,10.3C-8.5,27.9-9.7,28.7-10.9,29.3z" />
		<path
   id="Path_949"
   class="st2"
   d="M-70.5,24.6c-1.2-0.9-2.3-1.9-3.4-2.9l0.9-6.1l0.7-0.1l3.1-0.4l6.8,14.8    C-65.2,28.3-67.9,26.6-70.5,24.6L-70.5,24.6z" />
		<path
   id="Path_950"
   class="st2"
   d="M8.3,11.5c-1.2,1.9-2.5,3.6-4,5.3c-3.4,4-7.3,7.4-11.6,10.3c-1.2,0.8-2.4,1.5-3.6,2.2l-0.6-2.8    l3.5-9.1l4.2-11.1l8.8,1.1C6.1,8.7,7.2,10.1,8.3,11.5z" />
		<path
   id="Path_951"
   class="st3"
   d="M-23.9-41.4c-2.7-4.3-6.8-7.5-11.6-8.9l-3.6,2.9l1.4-3.3c-1.2-0.2-2.3-0.2-3.5-0.2l-3.2,4.1    l1.3-4c-5.6,0.7-10.7,3.7-14,8.3c-4.1,5.9-4.8,14.1-0.8,20c1.1-3.4,2.4-6.6,3.5-9.9c0.9,0.1,1.7,0.1,2.6,0l1.3-3.1l0.4,3    c4.2-0.4,10.3-1.2,14.3-1.9l-0.4-2.3l2.3,1.9c1.2-0.3,1.9-0.5,1.9-0.7c2.9,4.7,5.8,7.7,8.8,12.5C-22.1-29.8-20.2-35.3-23.9-41.4z" />
		<ellipse
   id="Ellipse_186"
   class="st1"
   cx="-24.9"
   cy="-26.1"
   rx="1.2"
   ry="2.4" />
	</g>
</g>
<path
   style="fill:#2850c3;stroke-width:3.77952;paint-order:markers stroke fill;fill-opacity:1"
   d="m 51.688638,108.23268 c -7.20854,-0.37233 -15.061327,-2.38406 -21.420517,-5.48751 -4.116582,-2.009 -8.337328,-4.817577 -11.714144,-7.794857 l -1.136933,-1.002414 0.364505,-2.469833 c 0.200478,-1.358408 0.401443,-2.724284 0.44659,-3.035281 0.05146,-0.354517 0.151039,-0.565448 0.266931,-0.565448 0.101666,0 5.728588,-3.659395 12.504272,-8.131988 6.775683,-4.472593 12.349294,-8.102118 12.385802,-8.06561 0.03651,0.03651 -0.175043,2.479238 -0.470113,5.428291 -0.29507,2.949052 -0.522236,5.374023 -0.504814,5.388824 0.01742,0.0148 0.720193,0.30094 1.561713,0.635865 6.000254,2.388101 11.911413,1.96125 16.768632,-1.210882 0.546206,-0.356713 1.087547,-0.743184 1.202982,-0.858824 0.135236,-0.135478 0.315684,-0.889326 0.507371,-2.119619 0.427147,-2.741527 1.401398,-7.524106 1.874492,-9.201848 0.471066,-1.670546 0.997878,-2.806976 1.238084,-2.670773 0.08886,0.05039 1.448799,0.934608 3.022076,1.964934 l 2.860504,1.873319 12.240295,4.330759 c 6.732162,2.381918 12.315947,4.377758 12.408412,4.435201 0.09246,0.05744 0.885009,1.001875 1.761213,2.098737 l 1.593099,1.994295 -0.789433,1.174053 c -1.914018,2.846553 -5.041824,6.454075 -7.709571,8.891995 -4.091568,3.739079 -8.41305,6.725014 -12.971162,8.962444 -8.277733,4.06327 -17.190436,5.90619 -26.290286,5.43617 z"
   id="path848" /><path
   style="fill:#4e73df;fill-opacity:1;stroke-width:3.77952;paint-order:markers stroke fill"
   d="M 50.424694,108.10131 C 44.488963,107.61066 37.856104,105.97742 32.529915,103.695 27.39626,101.49509 22.015043,98.013424 17.6522,94.069071 c -0.145405,-0.131458 -0.104237,-0.643065 0.23647,-2.93865 0.226889,-1.528714 0.443424,-2.869287 0.481189,-2.979051 0.03776,-0.109763 0.637,-0.548076 1.331633,-0.974028 0.694633,-0.425952 6.065456,-3.919782 11.935162,-7.764066 5.869706,-3.844284 10.896709,-7.133791 11.171117,-7.310016 0.497421,-0.319441 0.498926,-0.319553 0.498926,-0.0371 0,0.155823 -0.214838,2.524489 -0.477416,5.263703 -0.262578,2.739214 -0.449181,5.052316 -0.414674,5.140226 0.07427,0.189222 2.20782,1.009352 3.850416,1.480093 3.548097,1.016825 7.481002,0.961753 10.745482,-0.150468 1.288177,-0.438887 2.874852,-1.236261 4.085196,-2.052993 1.119527,-0.755448 1.028837,-0.531305 1.634427,-4.039521 0.510982,-2.960137 1.23609,-6.405632 1.673928,-7.953996 0.337623,-1.193967 0.911033,-2.623215 1.052425,-2.623215 0.04327,0 1.408631,0.864309 3.034133,1.920687 l 2.955457,1.920688 8.248894,2.920544 c 4.536892,1.606299 9.865412,3.501431 11.841156,4.211404 1.975743,0.709973 3.801809,1.365067 4.057923,1.455763 0.446014,0.157945 1.61141,1.427026 3.21917,3.50558 l 0.542086,0.700821 -0.638031,0.962262 c -5.099835,7.691456 -13.827315,14.979759 -22.548041,18.829822 -5.334416,2.35507 -10.055503,3.64962 -15.899079,4.35965 -2.057111,0.24995 -7.758949,0.35656 -9.845455,0.18409 z"
   id="path852" /></svg>
